<?xml version="1.0" encoding="UTF-8"?>
<svg xmlns="http://www.w3.org/2000/svg" id="Layer_1" data-name="Layer 1" viewBox="0 0 290 288">
  <defs>
    <style>.cls-1{fill:#ca8a4b;}.cls-2{fill:#fff;}</style>
  </defs>
  <polygon class="cls-1" points="90.8 67.95 90.8 102.04 139.47 156.44 139.47 146.38 139.47 146.41 128.49 132.81 128.49 53.64 90.8 67.95"></polygon>
  <polygon class="cls-2" points="139.94 1.01 139.47 146.38 139.47 156.44 188.13 102.05 188.13 57.44 199.1 61.73 199.1 29.05 139.94 1.01"></polygon>
  <path class="cls-2" d="M53.77,245.73H2.83v-3l2.82-.36c5.38-.91,6-1.92,5.93-8.75V197.06c.09-6.83-.55-7.84-5.93-8.84L2.83,188v-3H32.72v3l-3.1.27c-5.29.82-6.11,2-5.92,8.84V242h8.47c8.93.09,12.67-2.46,16.86-11.57l2.74-6.2h4Z"></path>
  <path class="cls-2" d="M105.81,245.73H76.19v-3l2.83-.36c5.38-.91,6-1.92,5.92-8.75V197.06c.09-6.83-.54-7.84-5.92-8.84L76.19,188v-3h29.62v3l-2.82.27c-5.38,1-6.11,2-5.92,8.84v36.55c-.19,6.83.54,7.84,5.92,8.75l2.82.36Z"></path>
  <path class="cls-2" d="M195,233.06l5.65-19.78c4.1-14.21,5.1-18.31,5.1-21.05,0-2.55-1.73-3.64-7.2-4.37v-2.92h22.06v2.92c-6.84.91-7.38,1.91-17.86,34.27l-7.66,24.6h-8.48l-15.13-47.21-14.21,47.21h-8L133.7,197.52c-2.46-8.11-3.37-9.2-9.29-9.66v-2.92h27.43v2.92c-5.29.54-6.56,1.28-6.56,3.46a26.83,26.83,0,0,0,.82,4.74l11.21,37,14.12-48.12h8.3Z"></path>
  <path class="cls-2" d="M276.34,230.69c3.92,10.12,4.92,11.3,10.57,12v3H258.84v-3c5.65-.73,7.29-1.46,7.29-3.37,0-1.09-.55-2.92-1.64-6L260.94,224H237.79l-3.28,8.66a21.13,21.13,0,0,0-1.65,6.19c0,2.19,2.19,3.37,7.66,3.92v3H218.38v-3c6.19-.82,8.2-3.1,13-15l15.31-37.09c.73-1.64,1.18-2.91,2.19-5.65h9.47Zm-37.1-10.57h20.24l-10-26.52Z"></path>
  <path class="cls-2" d="M15.46,276.65l-1,0a7.44,7.44,0,0,0-1.19-3A4.31,4.31,0,0,0,9.63,272c-3.32,0-5.26,2.64-5.26,7.19a8.29,8.29,0,0,0,1.3,5,4.81,4.81,0,0,0,3.94,1.93c1.75,0,3.14-.7,5.05-2.59l.87.93A7.78,7.78,0,0,1,9.45,287a9.39,9.39,0,0,1-6.36-2.12A7.66,7.66,0,0,1,1,279.07c0-5.26,2.87-7.95,8.45-7.95a9.68,9.68,0,0,1,4.23.8,1.13,1.13,0,0,0,.41.09c.3,0,.44-.12.78-.62h.54Z"></path>
  <path class="cls-2" d="M34.35,282.89c1,2.53,1.23,2.83,2.64,3v.75H30v-.75c1.41-.18,1.82-.37,1.82-.84a5.88,5.88,0,0,0-.41-1.51l-.89-2.34H24.72l-.82,2.16a5.09,5.09,0,0,0-.41,1.55c0,.55.54.84,1.91,1v.75H19.87v-.75c1.55-.21,2.05-.78,3.25-3.76L27,272.87c.18-.41.3-.73.55-1.41h2.36Zm-9.27-2.64h5.06l-2.51-6.63Z"></path>
  <path class="cls-2" d="M46.64,283.62c0,1.69.16,2,1.59,2.19l.82.09v.75H41.42v-.75l.71-.09c1.34-.23,1.5-.48,1.48-2.19v-9.13c0-1.71-.14-2-1.48-2.19l-.71-.09v-.75h7.86a7.49,7.49,0,0,1,3.94.8,3.93,3.93,0,0,1,1.89,3.57c0,2.3-1.42,3.85-3.85,4.26a25,25,0,0,1-4.62.23Zm0-4.19c.5,0,.84,0,1.18,0,2.85,0,4.1-1.09,4.1-3.59a3.31,3.31,0,0,0-1.41-3.06,4.82,4.82,0,0,0-2.4-.43H46.64Z"></path>
  <path class="cls-2" d="M67.35,286.65H60v-.75l.7-.09c1.35-.23,1.51-.48,1.48-2.19v-9.13c0-1.71-.13-2-1.48-2.21l-.7-.07v-.75h7.4v.75l-.71.07c-1.34.25-1.53.5-1.48,2.21v9.13c0,1.71.14,2,1.48,2.19l.71.09Z"></path>
  <path class="cls-2" d="M87.78,276.65h-1l-.38-1.18c-.85-2.42-1.64-3.14-3.35-3.1H81.81v11.25c0,1.71.16,2,1.48,2.19l.73.09v.75H76.53v-.75l.73-.09c1.32-.18,1.5-.48,1.48-2.19V272.37H77.49c-1.71,0-2.51.68-3.35,3.1l-.39,1.18h-1l.07-5.19H87.71Z"></path>
  <path class="cls-2" d="M105.15,282.89c1,2.53,1.22,2.83,2.64,3v.75h-7v-.75c1.41-.18,1.82-.37,1.82-.84a5.48,5.48,0,0,0-.41-1.51l-.88-2.34H95.51l-.82,2.16a5.41,5.41,0,0,0-.41,1.55c0,.55.55.84,1.91,1v.75H90.66v-.75c1.55-.21,2-.78,3.26-3.76l3.82-9.27c.19-.41.3-.73.55-1.41h2.37Zm-9.27-2.64h5.05l-2.5-6.63Z"></path>
  <path class="cls-2" d="M125,286.65H112.21v-.75l.71-.09c1.34-.23,1.5-.48,1.48-2.19v-9.13c0-1.71-.14-2-1.48-2.21l-.71-.07v-.75h7.47v.75l-.77.07c-1.32.2-1.53.5-1.48,2.21v11.23h2.12c2.23,0,3.16-.62,4.21-2.9l.68-1.54h1Z"></path>
  <path class="cls-2" d="M153.29,282.89c1,2.53,1.23,2.83,2.64,3v.75h-7v-.75c1.41-.18,1.82-.37,1.82-.84a5.88,5.88,0,0,0-.41-1.51l-.89-2.34h-5.78l-.82,2.16a5.09,5.09,0,0,0-.41,1.55c0,.55.54.84,1.91,1v.75h-5.53v-.75c1.54-.21,2-.78,3.25-3.76l3.83-9.27c.18-.41.29-.73.54-1.41h2.37ZM144,280.25h5.06l-2.51-6.63Z"></path>
  <path class="cls-2" d="M168.4,271.46c2.82,0,4.39.43,5.72,1.59a7.7,7.7,0,0,1,2.43,6,7.61,7.61,0,0,1-2.87,6.38c-1.23.89-2.78,1.25-5.28,1.25h-8v-.75l.71-.09c1.34-.23,1.5-.48,1.48-2.19v-9.13c0-1.71-.14-2-1.48-2.21l-.71-.07v-.75Zm-1.23,14.26a6.77,6.77,0,0,0,4-1c1.32-1,2-2.93,2-5.64,0-3-.82-5-2.39-5.95a7.42,7.42,0,0,0-3.69-.75h-1.57v13.35Z"></path>
  <path class="cls-2" d="M187.7,286.9l-4.83-12c-.82-2.12-1.16-2.48-2.66-2.64v-.75h7.19v.75c-1.5.25-1.77.41-1.77,1a3.13,3.13,0,0,0,.2.91l4,10.43,3.82-10.34a2.71,2.71,0,0,0,.23-1c0-.61-.41-.84-1.87-1v-.75h5.42v.75c-1.43.12-1.91.59-2.59,2.46-.18.48-.37.93-.53,1.34l-1.09,2.72c-.36.93-.87,2.18-1.14,2.82-.57,1.46-1.27,3.23-2.12,5.35Z"></path>
  <path class="cls-2" d="M209.91,286.65h-7.4v-.75l.71-.09c1.34-.23,1.5-.48,1.48-2.19v-9.13c0-1.71-.14-2-1.48-2.21l-.71-.07v-.75h7.4v.75l-.7.07c-1.35.25-1.53.5-1.48,2.21v9.13c0,1.71.13,2,1.48,2.19l.7.09Z"></path>
  <path class="cls-2" d="M226.64,276.52l-.94,0a6.2,6.2,0,0,0-1.07-3.14,3.77,3.77,0,0,0-3-1.42,2.41,2.41,0,0,0-2.69,2.35,2.62,2.62,0,0,0,1.14,2.12,10,10,0,0,0,2.89,1.3,11,11,0,0,1,3,1.34,3.87,3.87,0,0,1,1.52,3.19,4.45,4.45,0,0,1-2.39,4,7.94,7.94,0,0,1-3.39.66,9.21,9.21,0,0,1-3.44-.61,3.13,3.13,0,0,0-.87-.23c-.23,0-.45.16-.84.59H216l0-5.54.93,0a9.34,9.34,0,0,0,1.05,2.75,4.28,4.28,0,0,0,3.87,2.21c1.85,0,3-1,3-2.59a2.18,2.18,0,0,0-.89-1.82c-.64-.44-.64-.44-3.07-1.39-3.31-1.28-4.53-2.58-4.53-4.83,0-2.69,1.86-4.35,4.89-4.35a10.63,10.63,0,0,1,3.58.7,1.24,1.24,0,0,0,.41.1c.22,0,.48-.16.79-.53h.55Z"></path>
  <path class="cls-2" d="M250.26,279c0,2.65-.68,4.58-2.09,5.9s-3.55,2.05-6.31,2.05-4.83-.66-6.31-2.05-2.09-3.25-2.09-6c0-5.08,2.91-7.81,8.38-7.81S250.26,273.83,250.26,279ZM236.83,279c0,4.58,1.82,7.15,5,7.15s5-2.59,5-7.06-1.84-7-5-7S236.83,274.6,236.83,279Z"></path>
  <path class="cls-2" d="M271.68,286.56a7.33,7.33,0,0,1-2.16.32,3.06,3.06,0,0,1-2.37-.84,5.93,5.93,0,0,1-1.3-2.94c-.77-3.28-1.11-3.67-3.19-3.78h-1.29v4.3c0,1.71.13,2,1.47,2.19l.71.09v.75h-7.4v-.75l.71-.09c1.34-.23,1.5-.48,1.48-2.19v-9.13c0-1.71-.14-2-1.48-2.19l-.71-.09v-.75h8.63a6.43,6.43,0,0,1,3.71.82A3.15,3.15,0,0,1,270,275a3.52,3.52,0,0,1-1.66,3,6.43,6.43,0,0,1-2.8.89c2.3.34,3.05,1.14,3.71,4,.43,1.82.59,2.23.89,2.6a.93.93,0,0,0,.86.43c.16,0,.34,0,.62,0Zm-8.84-8.13c2.46,0,3.92-1.21,3.92-3.23a2.56,2.56,0,0,0-1.52-2.51,6.44,6.44,0,0,0-2.51-.32c-.41,0-.73,0-1.36.05v6Z"></path>
  <path class="cls-2" d="M288.13,276.52l-.93,0a6.2,6.2,0,0,0-1.07-3.14,3.77,3.77,0,0,0-3-1.42,2.41,2.41,0,0,0-2.69,2.35,2.62,2.62,0,0,0,1.14,2.12,10,10,0,0,0,2.89,1.3,10.76,10.76,0,0,1,3,1.34,3.85,3.85,0,0,1,1.53,3.19,4.47,4.47,0,0,1-2.39,4,7.94,7.94,0,0,1-3.39.66,9.21,9.21,0,0,1-3.44-.61,3.13,3.13,0,0,0-.87-.23c-.22,0-.45.16-.84.59h-.55l0-5.54.93,0a9.34,9.34,0,0,0,1,2.75,4.27,4.27,0,0,0,3.87,2.21c1.84,0,3-1,3-2.59a2.18,2.18,0,0,0-.89-1.82c-.64-.44-.64-.44-3.07-1.39-3.31-1.28-4.54-2.58-4.54-4.83,0-2.69,1.87-4.35,4.9-4.35a10.63,10.63,0,0,1,3.58.7,1.24,1.24,0,0,0,.41.1c.22,0,.47-.16.79-.53h.55Z"></path>
</svg>
